<?xml version="1.0" standalone="no"?>
<!DOCTYPE svg PUBLIC "-//W3C//DTD SVG 20010904//EN"
 "http://www.w3.org/TR/2001/REC-SVG-20010904/DTD/svg10.dtd">
<svg version="1.0" xmlns="http://www.w3.org/2000/svg"
 width="260.000000pt" height="260.000000pt" viewBox="0 0 260.000000 260.000000"
 preserveAspectRatio="xMidYMid meet">
<metadata>
Created by potrace 1.11, written by Peter Selinger 2001-2013
</metadata>
<g transform="translate(0.000000,260.000000) scale(0.100000,-0.100000)"
fill="#000000" stroke="none">
<path d="M165 1938 c-16 -6 -36 -12 -42 -14 -14 -4 -18 -72 -5 -90 8 -12 70
-44 84 -44 5 0 16 -6 23 -14 8 -7 57 -19 110 -26 63 -8 99 -18 102 -26 6 -16
43 -19 43 -4 0 6 5 10 10 10 6 0 10 -22 10 -50 0 -27 -5 -50 -10 -50 -6 0 -15
-11 -21 -24 -6 -13 -22 -29 -36 -35 -20 -9 -24 -17 -21 -44 2 -24 8 -33 24
-35 21 -3 21 -6 26 -405 5 -349 8 -408 23 -444 9 -24 20 -43 24 -43 6 0 34
-57 45 -92 3 -10 12 -18 20 -18 8 0 17 -9 21 -20 15 -47 131 -119 193 -120 12
0 22 -3 22 -8 0 -4 45 -16 100 -26 55 -10 100 -22 100 -27 0 -5 7 -9 15 -9 8
0 15 -4 15 -9 0 -11 78 -31 119 -31 l31 0 2 -77 c1 -43 2 -96 3 -118 0 -40 0
-40 42 -43 39 -3 42 -1 48 28 4 17 4 47 0 67 -3 19 -3 59 1 89 l6 54 74 0 c81
0 174 17 174 31 0 5 7 9 15 9 8 0 15 4 15 9 0 5 10 11 23 15 12 3 32 14 44 26
12 11 28 20 36 20 27 0 121 103 137 150 9 27 24 49 38 56 23 11 62 72 62 97 0
7 9 18 19 24 11 7 22 26 26 43 4 16 14 38 23 47 14 14 18 43 20 165 3 119 7
148 18 148 8 0 14 5 14 10 0 6 20 10 44 10 37 0 48 5 69 30 14 17 29 30 32 30
12 0 44 45 45 63 0 9 4 17 8 17 14 0 42 75 42 113 0 44 -15 87 -32 87 -6 0
-26 15 -43 33 -78 79 -79 80 -154 75 l-68 -5 -21 43 c-20 40 -25 44 -71 50
-40 5 -51 11 -53 27 -2 13 -16 25 -43 34 -21 7 -42 17 -45 21 -19 25 -86 41
-211 47 -80 5 -137 12 -141 19 -10 16 -431 13 -436 -3 -5 -14 -202 -16 -202
-1 0 6 -19 11 -42 11 -24 1 -56 4 -73 8 -27 6 -30 10 -27 41 3 37 -14 80 -32
80 -6 0 -20 -11 -30 -25 -18 -24 -19 -24 -50 -8 -17 9 -33 19 -36 23 -19 27
-241 48 -295 28z m555 -218 c0 -5 -4 -10 -10 -10 -5 0 -10 5 -10 10 0 6 5 10
10 10 6 0 10 -4 10 -10z m290 0 c0 -5 -4 -10 -10 -10 -5 0 -10 5 -10 10 0 6 5
10 10 10 6 0 10 -4 10 -10z m692 -92 c39 -8 60 -18 63 -29 6 -19 39 -34 54
-24 5 3 12 1 16 -5 3 -5 16 -10 29 -10 12 0 26 -3 29 -6 13 -13 -13 -41 -42
-47 -48 -10 -77 -46 -95 -117 -10 -39 -25 -71 -37 -81 -18 -13 -20 -22 -14
-62 4 -26 11 -47 16 -47 6 0 19 -16 30 -35 12 -19 27 -35 35 -35 8 0 20 -11
26 -25 10 -23 17 -25 71 -25 l59 0 -3 -130 c-3 -87 -8 -133 -16 -138 -6 -4
-16 -20 -22 -35 l-11 -27 -240 0 -241 0 -19 -42 c-14 -30 -20 -65 -20 -118 0
-67 4 -80 30 -119 17 -24 30 -49 30 -56 0 -18 31 -42 70 -53 19 -6 27 -11 18
-11 -10 -1 -18 -5 -18 -11 0 -19 -78 -30 -209 -30 -130 0 -203 11 -228 36 -7
6 -57 20 -113 30 -55 10 -100 21 -100 25 0 4 -21 10 -47 14 -27 4 -61 14 -77
23 -31 18 -86 69 -86 80 0 18 -55 112 -65 112 -7 0 -15 8 -17 18 -4 15 -1 18
18 14 29 -5 114 27 114 44 0 7 7 19 15 28 35 34 39 70 45 385 4 236 8 315 18
319 6 2 12 12 12 23 0 10 4 19 9 19 5 0 14 13 21 30 8 19 28 37 56 51 28 13
46 29 50 45 6 23 7 24 163 27 415 8 567 6 623 -5z m-1112 -18 c0 -5 -7 -10
-15 -10 -8 0 -15 5 -15 10 0 6 7 10 15 10 8 0 15 -4 15 -10z m260 0 c0 -5 -4
-10 -10 -10 -5 0 -10 5 -10 10 0 6 5 10 10 10 6 0 10 -4 10 -10z m-50 -20 c0
-5 -4 -10 -10 -10 -5 0 -10 5 -10 10 0 6 5 10 10 10 6 0 10 -4 10 -10z m-220
-77 c-8 -3 -24 -13 -35 -22 -20 -16 -20 -16 -1 7 11 12 26 22 35 21 14 0 14
-1 1 -6z m1506 -38 c4 -8 12 -15 18 -15 12 0 28 -16 90 -88 19 -22 19 -23 0
-60 -10 -20 -22 -38 -26 -40 -5 -2 -8 -8 -8 -14 0 -6 -21 -31 -46 -55 -45 -41
-48 -43 -110 -43 -36 0 -64 -4 -64 -10 0 -5 -13 -10 -29 -10 -21 0 -32 6 -36
20 -3 11 -12 20 -19 20 -7 0 -25 11 -40 25 -22 20 -25 29 -16 40 6 7 10 24 8
37 -2 12 4 51 12 86 l14 63 33 -6 c25 -4 45 0 76 17 23 13 44 26 47 29 16 20
89 23 96 4z m-216 -765 c0 -5 -7 -10 -15 -10 -8 0 -15 5 -15 10 0 6 7 10 15
10 8 0 15 -4 15 -10z m-49 -73 c-10 -9 -11 -8 -5 6 3 10 9 15 12 12 3 -3 0
-11 -7 -18z m-22 -36 c-7 -10 -21 -24 -33 -31 -20 -12 -20 -12 -6 6 14 17 41
43 48 44 1 0 -3 -8 -9 -19z m-104 -120 c19 -7 18 -10 -12 -39 -17 -18 -39 -32
-47 -32 -9 0 -25 -9 -37 -21 -13 -13 -24 -17 -32 -11 -7 5 -25 12 -42 16 -67
16 -87 66 -32 84 38 12 173 14 202 3z"/>
<path d="M1190 1530 c0 -5 -12 -13 -27 -16 -38 -9 -85 -35 -101 -56 -7 -9 -27
-18 -45 -20 -31 -3 -32 -5 -40 -63 -4 -33 -6 -103 -5 -155 l3 -95 119 -3 c115
-3 226 11 226 27 0 5 20 29 45 55 25 25 48 60 52 76 3 17 9 30 14 30 5 0 9 29
9 65 0 64 -1 67 -42 105 -24 22 -49 40 -55 40 -7 0 -13 5 -13 10 0 6 -30 10
-70 10 -39 0 -70 -4 -70 -10z m144 -83 c28 -26 36 -41 36 -67 0 -91 -62 -166
-149 -181 -31 -5 -67 -9 -81 -8 l-25 0 23 11 c22 11 27 29 23 78 -3 29 -16 40
-53 40 -35 0 -52 -30 -43 -77 4 -22 14 -37 28 -43 19 -7 16 -9 -15 -9 l-38 -1
0 58 c0 46 4 60 20 70 11 7 20 21 20 33 0 37 49 83 106 99 24 7 44 17 44 21 0
5 15 9 34 9 24 0 44 -9 70 -33z"/>
<path d="M2076 1422 c-35 -7 -50 -31 -47 -74 2 -24 71 -44 100 -29 21 12 29
63 13 87 -9 14 -41 21 -66 16z"/>
<path d="M0 783 c0 -23 5 -33 15 -33 18 0 18 1 0 36 l-15 29 0 -32z"/>
</g>
</svg>
